<svg aria-hidden="true" style="width:0;height:0;position:absolute;overflow:hidden" xmlns="http://www.w3.org/2000/svg"><defs><symbol id="icon-comments" viewBox="0 0 16 16"><path d="M8 3c-.858 0-1.687.135-2.464.402-.73.251-1.38.605-1.932 1.054C2.569 5.297 2 6.378 2 7.5c0 .63.175 1.24.52 1.815.356.592.89 1.134 1.547 1.566.474.312.793.812.878 1.373.028.187.046.376.053.564.117-.097.23-.201.342-.312a2 2 0 0 1 1.666-.57c.328.042.662.063.995.063.858 0 1.687-.135 2.464-.402a6.278 6.278 0 0 0 1.932-1.054c1.035-.841 1.604-1.922 1.604-3.044s-.57-2.203-1.604-3.044a6.299 6.299 0 0 0-1.932-1.054 7.563 7.563 0 0 0-2.464-.402zm0-2c4.418 0 8 2.91 8 6.5S12.418 14 8 14c-.424 0-.841-.027-1.247-.079-1.718 1.718-3.77 2.027-5.753 2.072v-.421c1.071-.525 2-1.48 2-2.572a3.01 3.01 0 0 0-.034-.448C1.157 11.36 0 9.54 0 7.5 0 3.91 3.582 1 8 1z"/></symbol><symbol id="icon-search" viewBox="0 0 16 16"><path d="m15.504 13.616-3.79-3.223c-.392-.353-.811-.514-1.149-.499a6 6 0 1 0-.672.672c-.016.338.146.757.499 1.149l3.223 3.79c.552.613 1.453.665 2.003.115s.498-1.452-.115-2.003zM6 10a4 4 0 1 1 0-8 4 4 0 0 1 0 8z"/></symbol><symbol id="icon-downloads" viewBox="0 0 16 16"><path d="M14 8h-2.5L8 11.5 4.5 8H2l-2 4v1h16v-1l-2-4zM0 14h16v1H0v-1zm9-9V1H7v4H3.5L8 9.5 12.5 5H9z"/></symbol><symbol id="icon-views" viewBox="0 0 16 16"><path d="M8 3C4.511 3 1.486 5.032 0 8c1.486 2.968 4.511 5 8 5s6.514-2.032 8-5c-1.486-2.968-4.511-5-8-5zm3.945 2.652c.94.6 1.737 1.403 2.335 2.348a7.594 7.594 0 0 1-2.335 2.348 7.326 7.326 0 0 1-7.889 0A7.615 7.615 0 0 1 1.721 8a7.594 7.594 0 0 1 2.52-2.462 4 4 0 1 0 7.518 0c.062.037.124.075.185.114zM8 6.5a1.5 1.5 0 1 1-3.001-.001A1.5 1.5 0 0 1 8 6.5z"/></symbol><symbol id="icon-likes" viewBox="0 0 16 16"><path d="M11.8 1c-1.682 0-3.129 1.368-3.799 2.797C7.33 2.368 5.883 1 4.201 1a4.202 4.202 0 0 0-4.2 4.2c0 4.716 4.758 5.953 8 10.616 3.065-4.634 8-6.05 8-10.616 0-2.319-1.882-4.2-4.2-4.2z"/></symbol></defs></svg>