<svg aria-hidden="true" style="position: absolute; width: 0; height: 0; overflow: hidden;" version="1.1" xmlns="http://www.w3.org/2000/svg" xmlns:xlink="http://www.w3.org/1999/xlink">
<defs>
<symbol id="icon-comments" viewBox="0 0 16 16">
<path d="M8 3c-0.858 0-1.687 0.135-2.464 0.402-0.73 0.251-1.38 0.605-1.932 1.054-1.035 0.841-1.604 1.922-1.604 3.044 0 0.63 0.175 1.24 0.52 1.815 0.356 0.592 0.89 1.134 1.547 1.566 0.474 0.312 0.793 0.812 0.878 1.373 0.028 0.187 0.046 0.376 0.053 0.564 0.117-0.097 0.23-0.201 0.342-0.312 0.377-0.377 0.887-0.586 1.414-0.586 0.084 0 0.168 0.005 0.252 0.016 0.328 0.042 0.662 0.063 0.995 0.063 0.858 0 1.687-0.135 2.464-0.402 0.73-0.251 1.38-0.605 1.932-1.054 1.035-0.841 1.604-1.922 1.604-3.044s-0.57-2.203-1.604-3.044c-0.552-0.448-1.202-0.803-1.932-1.054-0.777-0.267-1.606-0.402-2.464-0.402zM8 1v0c4.418 0 8 2.91 8 6.5s-3.582 6.5-8 6.5c-0.424 0-0.841-0.027-1.247-0.079-1.718 1.718-3.77 2.027-5.753 2.072v-0.421c1.071-0.525 2-1.48 2-2.572 0-0.152-0.012-0.302-0.034-0.448-1.809-1.192-2.966-3.012-2.966-5.052 0-3.59 3.582-6.5 8-6.5z"></path>
</symbol>
<symbol id="icon-search" viewBox="0 0 16 16">
<path d="M15.504 13.616l-3.79-3.223c-0.392-0.353-0.811-0.514-1.149-0.499 0.895-1.048 1.435-2.407 1.435-3.893 0-3.314-2.686-6-6-6s-6 2.686-6 6 2.686 6 6 6c1.486 0 2.845-0.54 3.893-1.435-0.016 0.338 0.146 0.757 0.499 1.149l3.223 3.79c0.552 0.613 1.453 0.665 2.003 0.115s0.498-1.452-0.115-2.003zM6 10c-2.209 0-4-1.791-4-4s1.791-4 4-4 4 1.791 4 4-1.791 4-4 4z"></path>
</symbol>
<symbol id="icon-downloads" viewBox="0 0 16 16">
<path d="M14 8h-2.5l-3.5 3.5-3.5-3.5h-2.5l-2 4v1h16v-1l-2-4zM0 14h16v1h-16v-1zM9 5v-4h-2v4h-3.5l4.5 4.5 4.5-4.5h-3.5z"></path>
</symbol>
<symbol id="icon-views" viewBox="0 0 16 16">
<path d="M8 3c-3.489 0-6.514 2.032-8 5 1.486 2.968 4.511 5 8 5s6.514-2.032 8-5c-1.486-2.968-4.511-5-8-5zM11.945 5.652c0.94 0.6 1.737 1.403 2.335 2.348-0.598 0.946-1.395 1.749-2.335 2.348-1.181 0.753-2.545 1.152-3.944 1.152s-2.763-0.398-3.945-1.152c-0.94-0.6-1.737-1.403-2.335-2.348 0.598-0.946 1.395-1.749 2.335-2.348 0.061-0.039 0.123-0.077 0.185-0.114-0.156 0.427-0.241 0.888-0.241 1.369 0 2.209 1.791 4 4 4s4-1.791 4-4c0-0.481-0.085-0.942-0.241-1.369 0.062 0.037 0.124 0.075 0.185 0.114v0zM8 6.5c0 0.828-0.672 1.5-1.5 1.5s-1.5-0.672-1.5-1.5 0.672-1.5 1.5-1.5 1.5 0.672 1.5 1.5z"></path>
</symbol>
<symbol id="icon-likes" viewBox="0 0 16 16">
<path d="M11.8 1c-1.682 0-3.129 1.368-3.799 2.797-0.671-1.429-2.118-2.797-3.8-2.797-2.318 0-4.2 1.882-4.2 4.2 0 4.716 4.758 5.953 8 10.616 3.065-4.634 8-6.050 8-10.616 0-2.319-1.882-4.2-4.2-4.2z"></path>
</symbol>
</defs>
</svg>
